<?xml version="1.0" encoding="utf-8"?>
<!-- Generator: Adobe Illustrator 19.1.0, SVG Export Plug-In . SVG Version: 6.00 Build 0)  -->
<svg version="1.1" id="Layer_1" xmlns="http://www.w3.org/2000/svg" xmlns:xlink="http://www.w3.org/1999/xlink" x="0px" y="0px"
	 viewBox="0 0 200 200" style="enable-background:new 0 0 200 200;" xml:space="preserve">
<style type="text/css">
	.st0{fill:#FFFFFF;}
</style>
<path class="st0" d="M198,99.8c0,54.9-43,99.6-97.9,99.6C45.4,199.3,2,154.7,2,99.8C2,45.3,45.4,0.7,100.1,0.7
	C155,0.7,198,45.3,198,99.8 M8.9,99.8c13.8,29.1,46.3,57.5,91.2,57.5c44.6,0,77.3-28.4,91.2-57.5c-10.5-21.7-40.4-57.1-91.2-57.1
	C55.2,42.7,22.8,71.1,8.9,99.8 M152.6,99.8c0,29.4-23.4,52.8-52.5,52.8c-29.1,0-52.8-23.4-52.8-52.8c0-28.9,23.6-52.5,52.8-52.5
	C129.2,47.2,152.6,70.9,152.6,99.8"/>
</svg>
